<svg xmlns="http://www.w3.org/2000/svg" viewBox="0 0 1200 760" role="img" aria-labelledby="title desc">
<title id="title">Russia student life city scene</title><desc id="desc">A warm city-life illustration showing an Indian MBBS student near a Russian skyline in winter.</desc>
<defs><linearGradient id="dusk" x1="0" x2="1" y1="0" y2="1"><stop offset="0" stop-color="#172554"/><stop offset=".5" stop-color="#1e3a8a"/><stop offset="1" stop-color="#bfdbfe"/></linearGradient><linearGradient id="coat" x1="0" x2="1"><stop offset="0" stop-color="#ffffff"/><stop offset="1" stop-color="#e0f2fe"/></linearGradient><filter id="sh" x="-20%" y="-20%" width="140%" height="140%"><feDropShadow dx="0" dy="28" stdDeviation="30" flood-color="#020617" flood-opacity=".25"/></filter></defs>
<rect width="1200" height="760" fill="url(#dusk)"/><circle cx="966" cy="136" r="74" fill="#fff7ed" opacity=".88"/><path d="M0 574 C220 540 420 600 645 566 C850 536 1000 550 1200 510 L1200 760 L0 760Z" fill="#eff6ff"/><g opacity=".82"><rect x="82" y="345" width="98" height="235" fill="#0f172a"/><rect x="215" y="280" width="132" height="300" fill="#1e293b"/><rect x="386" y="230" width="126" height="350" fill="#0f172a"/><path d="M449 110 L513 230 H386Z" fill="#1e293b"/><rect x="560" y="318" width="108" height="262" fill="#172554"/><rect x="712" y="260" width="138" height="320" fill="#111827"/><rect x="902" y="336" width="120" height="244" fill="#1e293b"/></g><g fill="#93c5fd" opacity=".6"><rect x="104" y="380" width="18" height="28"/><rect x="140" y="430" width="18" height="28"/><rect x="246" y="326" width="20" height="32"/><rect x="292" y="390" width="20" height="32"/><rect x="424" y="284" width="18" height="30"/><rect x="462" y="348" width="18" height="30"/><rect x="748" y="310" width="20" height="32"/><rect x="800" y="370" width="20" height="32"/><rect x="938" y="382" width="18" height="28"/></g><g transform="translate(520 610)" filter="url(#sh)"><circle cx="70" cy="-224" r="54" fill="#8b5a3c"/><path d="M18 -142 C44 -188 98 -188 126 -142 L170 130 L-26 130Z" fill="url(#coat)"/><path d="M43 -130 H104 L118 130 H31Z" fill="#1d4ed8"/><path d="M-2 -134 L-90 -36" stroke="url(#coat)" stroke-width="42" stroke-linecap="round"/><path d="M134 -136 L216 -46" stroke="url(#coat)" stroke-width="42" stroke-linecap="round"/><circle cx="-104" cy="-26" r="18" fill="#8b5a3c"/><circle cx="230" cy="-35" r="18" fill="#8b5a3c"/><rect x="22" y="112" width="54" height="138" rx="19" fill="#020617"/><rect x="98" y="112" width="54" height="138" rx="19" fill="#020617"/><path d="M45 -122 C66 -98 96 -98 117 -122" stroke="#dbeafe" stroke-width="8" fill="none"/><circle cx="56" cy="-226" r="5" fill="#111827"/><circle cx="86" cy="-226" r="5" fill="#111827"/><path d="M54 -202 C66 -194 82 -194 96 -203" stroke="#3f2416" stroke-width="6" fill="none" stroke-linecap="round"/></g><g transform="translate(150 620)"><rect x="0" y="0" width="280" height="84" rx="24" fill="#ffffff" opacity=".88"/><circle cx="45" cy="42" r="22" fill="#1d4ed8"/><path d="M34 43 L43 52 L58 32" stroke="#fff" stroke-width="6" fill="none" stroke-linecap="round" stroke-linejoin="round"/><rect x="86" y="26" width="150" height="12" rx="6" fill="#172554" opacity=".86"/><rect x="86" y="50" width="112" height="9" rx="5" fill="#64748b" opacity=".6"/></g><g fill="#ffffff" opacity=".75"><circle cx="94" cy="98" r="4"/><circle cx="182" cy="152" r="3"/><circle cx="694" cy="132" r="4"/><circle cx="1098" cy="260" r="3"/><circle cx="1032" cy="220" r="4"/></g></svg>