<svg xmlns="http://www.w3.org/2000/svg" viewBox="0 0 1400 950" role="img" aria-labelledby="title desc">
  <title id="title">Indian medical students near a Russian university campus</title>
  <desc id="desc">Editorial vector-style scene showing a winter Russian medical university campus with Indian students in medical coats.</desc>
  <defs>
    <linearGradient id="sky" x1="0" x2="1" y1="0" y2="1"><stop offset="0" stop-color="#dbeafe"/><stop offset="0.48" stop-color="#eff6ff"/><stop offset="1" stop-color="#fff7ed"/></linearGradient>
    <linearGradient id="glass" x1="0" x2="1"><stop offset="0" stop-color="#1d4ed8"/><stop offset="1" stop-color="#60a5fa"/></linearGradient>
    <linearGradient id="snow" x1="0" y1="0" x2="0" y2="1"><stop offset="0" stop-color="#ffffff"/><stop offset="1" stop-color="#e0f2fe"/></linearGradient>
    <filter id="shadow" x="-20%" y="-20%" width="140%" height="140%"><feDropShadow dx="0" dy="26" stdDeviation="34" flood-color="#071629" flood-opacity=".22"/></filter>
  </defs>
  <rect width="1400" height="950" fill="url(#sky)"/>
  <circle cx="1130" cy="148" r="82" fill="#fff7ed" opacity=".9"/>
  <path d="M0 735 C230 690 440 750 640 710 C875 665 1045 705 1400 635 L1400 950 L0 950Z" fill="url(#snow)"/>
  <path d="M142 523 L390 330 L640 523 Z" fill="#e5e7eb"/>
  <path d="M390 330 L925 330 L1168 523 L640 523 Z" fill="#cbd5e1"/>
  <rect x="205" y="523" width="900" height="285" rx="18" fill="#f8fafc" filter="url(#shadow)"/>
  <rect x="245" y="565" width="118" height="190" rx="8" fill="#dbeafe"/><rect x="405" y="565" width="118" height="190" rx="8" fill="#dbeafe"/><rect x="565" y="565" width="118" height="190" rx="8" fill="#dbeafe"/><rect x="725" y="565" width="118" height="190" rx="8" fill="#dbeafe"/><rect x="885" y="565" width="118" height="190" rx="8" fill="#dbeafe"/>
  <rect x="612" y="650" width="92" height="158" rx="8" fill="#172554"/>
  <rect x="620" y="662" width="76" height="55" rx="5" fill="url(#glass)" opacity=".65"/>
  <path d="M170 523 L1150 523" stroke="#94a3b8" stroke-width="18" stroke-linecap="round"/>
  <path d="M330 292 C438 200 658 196 758 292" stroke="#1d4ed8" stroke-width="20" fill="none" opacity=".35"/>
  <g transform="translate(286 714)">
    <circle cx="43" cy="-102" r="34" fill="#9f5f42"/><path d="M7 -50 C24 -82 68 -82 86 -50 L108 88 L-14 88Z" fill="#ffffff"/><path d="M22 -40 L72 -40 L80 92 L12 92Z" fill="#1e3a8a" opacity=".88"/><path d="M6 -50 L-24 24" stroke="#ffffff" stroke-width="28" stroke-linecap="round"/><path d="M88 -50 L123 18" stroke="#ffffff" stroke-width="28" stroke-linecap="round"/><rect x="-8" y="84" width="37" height="92" rx="14" fill="#0f172a"/><rect x="62" y="84" width="37" height="92" rx="14" fill="#0f172a"/>
  </g>
  <g transform="translate(470 724)">
    <circle cx="43" cy="-102" r="34" fill="#7c4a31"/><path d="M2 -50 C22 -82 69 -82 88 -50 L112 84 L-18 84Z" fill="#ffffff"/><path d="M24 -42 L70 -42 L77 88 L16 88Z" fill="#0f766e" opacity=".9"/><path d="M90 -50 L145 -8" stroke="#ffffff" stroke-width="26" stroke-linecap="round"/><circle cx="155" cy="-1" r="12" fill="#1d4ed8"/><rect x="-7" y="80" width="38" height="94" rx="14" fill="#111827"/><rect x="63" y="80" width="38" height="94" rx="14" fill="#111827"/>
  </g>
  <g transform="translate(982 706)">
    <rect x="0" y="0" width="215" height="134" rx="24" fill="#ffffff" opacity=".88"/><path d="M30 42 H185" stroke="#1d4ed8" stroke-width="12" stroke-linecap="round"/><path d="M30 74 H145" stroke="#93c5fd" stroke-width="10" stroke-linecap="round"/><path d="M30 104 H170" stroke="#bfdbfe" stroke-width="10" stroke-linecap="round"/>
  </g>
  <g opacity=".68" fill="#ffffff"><circle cx="90" cy="120" r="5"/><circle cx="210" cy="180" r="4"/><circle cx="1180" cy="290" r="5"/><circle cx="1260" cy="198" r="3"/><circle cx="720" cy="124" r="4"/><circle cx="1040" cy="96" r="3"/></g>
</svg>
