<svg xmlns="http://www.w3.org/2000/svg" viewBox="0 0 1200 760" role="img" aria-labelledby="title desc">
<title id="title">Modern medical simulation lab for MBBS students</title><desc id="desc">A clean medical training lab scene with students practicing clinical skills.</desc>
<defs><linearGradient id="bg" x1="0" x2="1" y1="0" y2="1"><stop offset="0" stop-color="#eff6ff"/><stop offset="1" stop-color="#dbeafe"/></linearGradient><linearGradient id="screen" x1="0" x2="1"><stop offset="0" stop-color="#0f172a"/><stop offset="1" stop-color="#1d4ed8"/></linearGradient><filter id="s" x="-20%" y="-20%" width="140%" height="140%"><feDropShadow dx="0" dy="22" stdDeviation="26" flood-color="#0f172a" flood-opacity=".18"/></filter></defs>
<rect width="1200" height="760" fill="url(#bg)"/><rect x="78" y="92" width="1044" height="574" rx="36" fill="#ffffff" filter="url(#s)"/><rect x="118" y="130" width="410" height="260" rx="24" fill="url(#screen)"/><path d="M164 310 C220 250 270 280 318 230 C382 166 438 218 493 150" stroke="#60a5fa" stroke-width="10" fill="none"/><path d="M160 338 H474" stroke="#bfdbfe" stroke-width="8" stroke-linecap="round" opacity=".55"/><rect x="594" y="132" width="430" height="76" rx="18" fill="#f1f5f9"/><rect x="626" y="158" width="185" height="14" rx="7" fill="#1d4ed8" opacity=".75"/><rect x="626" y="184" width="320" height="10" rx="5" fill="#94a3b8" opacity=".45"/><rect x="594" y="236" width="430" height="76" rx="18" fill="#f8fafc"/><rect x="626" y="262" width="245" height="14" rx="7" fill="#0f766e" opacity=".75"/><rect x="626" y="288" width="280" height="10" rx="5" fill="#94a3b8" opacity=".45"/><rect x="594" y="340" width="430" height="76" rx="18" fill="#f8fafc"/><rect x="626" y="366" width="215" height="14" rx="7" fill="#7c3aed" opacity=".7"/><rect x="626" y="392" width="330" height="10" rx="5" fill="#94a3b8" opacity=".45"/><ellipse cx="608" cy="604" rx="310" ry="46" fill="#dbeafe"/><rect x="426" y="482" width="364" height="88" rx="44" fill="#f8fafc" stroke="#cbd5e1" stroke-width="8"/><circle cx="610" cy="526" r="32" fill="#fecaca"/><path d="M550 596 C570 552 650 552 672 596 L688 652 L532 652Z" fill="#e2e8f0"/><g transform="translate(230 500)"><circle cx="42" cy="-80" r="31" fill="#8d5a43"/><path d="M4 -30 C20 -64 70 -64 88 -30 L112 136 L-18 136Z" fill="#fff"/><path d="M26 -24 H68 L78 136 H16Z" fill="#1d4ed8"/><rect x="-6" y="126" width="34" height="92" rx="13" fill="#0f172a"/><rect x="66" y="126" width="34" height="92" rx="13" fill="#0f172a"/></g><g transform="translate(850 500)"><circle cx="42" cy="-80" r="31" fill="#71432e"/><path d="M-8 -30 C14 -64 76 -64 96 -30 L118 136 L-28 136Z" fill="#fff"/><path d="M24 -24 H72 L78 136 H16Z" fill="#0f766e"/><path d="M-1 -22 L-54 38" stroke="#fff" stroke-width="24" stroke-linecap="round"/><rect x="-6" y="126" width="34" height="92" rx="13" fill="#0f172a"/><rect x="66" y="126" width="34" height="92" rx="13" fill="#0f172a"/></g></svg>